<svg xmlns="http://www.w3.org/2000/svg" viewBox="-4228 -2992 8456 7674" fill="#000000">
<polygon points="-624.0 249.4 -496.0 27.7 64.0 997.7 -192.0 997.7 -320.0 776.0 -448.0 997.7 -576.0 997.7 -640.0 886.8 -448.0 554.3"/>
<polygon points="-528.0 -415.7 -272.0 -415.7 -832.0 554.3 -960.0 332.6 -832.0 110.9 -1088.0 110.9 -1152.0 0.0 -1088.0 -110.9 -704.0 -110.9"/>
<polygon points="96.0 -665.1 224.0 -443.4 -896.0 -443.4 -768.0 -665.1 -512.0 -665.1 -640.0 -886.8 -576.0 -997.7 -448.0 -997.7 -256.0 -665.1"/>
<polygon points="624.0 -249.4 496.0 -27.7 -64.0 -997.7 192.0 -997.7 320.0 -776.0 448.0 -997.7 576.0 -997.7 640.0 -886.8 448.0 -554.3"/>
<polygon points="528.0 415.7 272.0 415.7 832.0 -554.3 960.0 -332.6 832.0 -110.9 1088.0 -110.9 1152.0 0.0 1088.0 110.9 704.0 110.9"/>
<polygon points="-96.0 665.1 -224.0 443.4 896.0 443.4 768.0 665.1 512.0 665.1 640.0 886.8 576.0 997.7 448.0 997.7 256.0 665.1"/>
<g transform="translate(-2232.7 2660.4)"><path d="M 892 -1331 L 1047 -1331 L 1047 0 L 899 0 L 155 -1055 L 155 0 L 0 0 L 0 -1331 L 148 -1331 L 892 -275" fill="black"/><path d="M 1366.8 -1144 L 1366.8 -1289 C 1326.8 -1300 1248.8 -1300 1208.8 -1289 L 1208.8 -1144 C 1248.8 -1133 1326.8 -1133 1366.8 -1144 M 1366.8 0 L 1366.8 -935 L 1208.8 -953 L 1208.8 0" fill="black"/><path d="M 2328.6 -935 L 1991.6 -480 L 2326.6 0 L 2133.6 0 L 1903.6 -370 L 1675.6 0 L 1492.6 0 L 1826.6 -467 L 1508.6 -935 L 1702.6 -935 L 1910.6 -574 L 2137.6 -935" fill="black"/><path d="M 3029.5 -1356 C 3362.5 -1356 3640.5 -1113 3640.5 -665 C 3640.5 -217 3362.5 25 3029.5 25 C 2696.5 25 2418.5 -217 2418.5 -665 C 2418.5 -1113 2696.5 -1356 3029.5 -1356 M 3029.5 -111 C 3295.5 -111 3464.5 -332 3464.5 -665 C 3464.5 -998 3295.5 -1219 3029.5 -1219 C 2763.5 -1219 2594.5 -998 2594.5 -665 C 2594.5 -332 2763.5 -111 3029.5 -111" fill="black"/><path d="M 4012.5 25 C 3881.5 25 3739.5 -9 3658.5 -88 L 3730.5 -203 C 3815.5 -147 3917.5 -119 4018.5 -119 C 4171.5 -119 4289.5 -185 4289.5 -325 C 4289.5 -447 4201.5 -519 3998.5 -638 C 3843.5 -728 3723.5 -823 3723.5 -1012 C 3723.5 -1228 3897.5 -1356 4147.5 -1356 C 4251.5 -1356 4343.5 -1336 4426.5 -1287 L 4372.5 -1167 C 4307.5 -1201 4212.5 -1212 4135.5 -1212 C 3979.5 -1212 3892.5 -1147 3892.5 -1034 C 3892.5 -923 3971.5 -840 4100.5 -764 C 4339.5 -624 4465.5 -531 4465.5 -340 C 4465.5 -99 4262.5 25 4012.5 25" fill="black"/></g>
</svg>
